<!-- Generator: Adobe Illustrator 23.0.3, SVG Export Plug-In  -->
<svg version="1.1" xmlns="http://www.w3.org/2000/svg" xmlns:xlink="http://www.w3.org/1999/xlink" x="0px" y="0px" width="96.39px"
	 height="124.74px" viewBox="0 0 96.39 124.74" style="enable-background:new 0 0 96.39 124.74;" xml:space="preserve">
<style type="text/css">
	.st0{fill:#FF8400;}
	.st1{fill:#F5B416;}
</style>
<defs>
</defs>
<g>
	<path class="st0" d="M48.43,27.91c-26.32,0-47.65,21.68-47.65,48.41c0,26.74,21.34,48.41,47.65,48.41
		c26.32,0,47.66-21.68,47.66-48.41C96.09,49.59,74.76,27.91,48.43,27.91L48.43,27.91z M72.94,72.01l-9.4,9.31l2.22,13.14
		c0.75,4.41-1.74,6.34-5.71,4.22l-11.62-6.2l-11.61,6.2c-3.9,2.08-6.47,0.28-5.71-4.22l2.22-13.14l-9.4-9.31
		c-3.16-3.12-2.26-6.16,2.18-6.82l12.98-1.92l5.81-11.95c1.95-4.01,5.07-4.09,7.06,0l5.81,11.95l12.98,1.92
		C75.12,65.83,76.16,68.82,72.94,72.01L72.94,72.01z M92.99,0H63.52c-1.59,0-2.86,1.13-3.24,2.63l-9.08,18.2
		c0,0,19.45,1.19,30.94,12.43L95.7,5.44c0.4-0.57,0.69-1.23,0.69-1.98C96.39,1.55,94.87,0,92.99,0L92.99,0z M45.19,20.82l-9.08-18.2
		C35.74,1.13,34.46,0,32.87,0H3.4C1.52,0,0,1.55,0,3.46c0,0.75,0.29,1.41,0.69,1.98l13.57,27.81
		C25.75,22.01,45.19,20.82,45.19,20.82L45.19,20.82z M45.19,20.82"/>
	<path class="st1" d="M0.78,76.33c0,25.88,20,47.02,45.15,48.35l5.81-30.45l-3.3-1.76l-11.61,6.2c-3.9,2.08-6.47,0.28-5.71-4.22
		l2.22-13.14l-9.4-9.31c-3.15-3.12-2.26-6.16,2.18-6.82l12.98-1.92l5.81-11.95c1.95-4.01,5.07-4.09,7.06,0l5.71,11.75l6.21-32.55
		c-4.85-1.69-10.05-2.6-15.46-2.6C22.12,27.91,0.78,49.59,0.78,76.33L0.78,76.33z M14.26,33.25c11.49-11.24,30.94-12.43,30.94-12.43
		l-9.08-18.2C35.74,1.13,34.46,0,32.87,0H3.4C1.52,0,0,1.55,0,3.46c0,0.75,0.29,1.41,0.69,1.98L14.26,33.25z M60.28,2.63l-9.08,18.2
		c0,0,6.38,0.39,14,2.84L69.71,0h-6.19C61.93,0,60.65,1.13,60.28,2.63L60.28,2.63z M60.28,2.63"/>
</g>
</svg>
