<!-- Generator: Adobe Illustrator 23.0.3, SVG Export Plug-In  -->
<svg version="1.1" xmlns="http://www.w3.org/2000/svg" xmlns:xlink="http://www.w3.org/1999/xlink" x="0px" y="0px" width="96.39px"
	 height="124.74px" viewBox="0 0 96.39 124.74" style="enable-background:new 0 0 96.39 124.74;" xml:space="preserve">
<style type="text/css">
	.st0{fill:#47BAFE;}
	.st1{fill:none;stroke:#DCDCDC;stroke-linecap:round;stroke-linejoin:round;stroke-miterlimit:10;}
	.st2{fill:#B4E4FF;}
</style>
<defs>
</defs>
<g>
	<g>
		<path class="st0" d="M48.43,27.91c-26.32,0-47.65,21.68-47.65,48.41c0,26.74,21.34,48.41,47.65,48.41
			c26.32,0,47.66-21.68,47.66-48.41C96.09,49.59,74.76,27.91,48.43,27.91z M48.2,104.13L21.28,68.51l13.46-14.25h26.91l13.46,14.25
			L48.2,104.13z"/>
		<path class="st0" d="M95.7,5.44c0.4-0.57,0.69-1.23,0.69-1.98c0-1.91-1.53-3.46-3.41-3.46H63.52c-1.59,0-2.86,1.13-3.24,2.63
			l-9.08,18.2c0,0,19.45,1.19,30.94,12.43L95.7,5.44z"/>
		<path class="st0" d="M45.19,20.82l-9.08-18.2C35.74,1.13,34.46,0,32.87,0H3.4C1.52,0,0,1.55,0,3.46c0,0.75,0.29,1.41,0.69,1.98
			l13.57,27.81C25.75,22.01,45.19,20.82,45.19,20.82z"/>
		<path class="st1" d="M48.2,104.13"/>
	</g>
	<g>
		<path class="st2" d="M69.71,0.07h-6.19c-1.59,0-2.86,1.13-3.24,2.63l-9.08,18.2c0,0,6.38,0.39,14,2.84L69.71,0.07z"/>
		<path class="st2" d="M45.19,20.89l-9.08-18.2c-0.37-1.5-1.65-2.63-3.24-2.63H3.4C1.52,0.07,0,1.61,0,3.53
			c0,0.75,0.29,1.41,0.69,1.98l13.57,27.81C25.75,22.08,45.19,20.89,45.19,20.89z"/>
		<path class="st2" d="M48.44,104.13L21.52,68.51l13.46-14.25h24.39l4.52-23.68c-4.85-1.69-10.05-2.6-15.46-2.6
			c-26.32,0-47.65,21.68-47.65,48.41c0,25.88,20,47.02,45.15,48.35l4.41-23.13L48.44,104.13z"/>
	</g>
</g>
</svg>
